<?xml version="1.0" encoding="UTF-8"?>
<svg width="500px" height="400px" viewBox="0 0 500 400" version="1.1" xmlns="http://www.w3.org/2000/svg" xmlns:xlink="http://www.w3.org/1999/xlink">
    <title>logo-mark-light</title>
    <g id="logo-mark-light" stroke="none" stroke-width="1" fill="none" fill-rule="evenodd">
        <g id="Group-2" transform="translate(6.000000, 8.000000)">
            <g id="Group">
                <path d="M367.650314,175.510803 L418.898369,146.778282 L459.236986,164.868621 C474.4341,171.68395 484.205973,186.795011 484.186646,203.450358 L483.99546,368.2078 L483.99546,368.2078 L367.650314,175.510803 Z" id="Path-13-Copy-3" fill="#FFFFFF" transform="translate(425.934365, 257.493041) scale(-1, -1) translate(-425.934365, -257.493041) "></path>
                <path d="M4.03835937,43.9609539 L56.5839494,15.3838318 L95.749325,32.8095975 C110.991434,39.5912362 120.812617,54.7103757 120.812617,71.3930769 L120.812617,235.66284 L120.812617,235.66284 L4.03835937,43.9609539 Z" id="Path-13" fill="#FFFFFF"></path>
                <path d="M183.480535,175.729893 L234.765963,146.6348 L274.626373,164.277622 C289.908398,171.041677 299.763988,186.181487 299.764248,202.893541 L299.766827,368.544167 L299.766827,368.544167 L183.480535,175.729893 Z" id="Path-13-Copy-2" fill="#FFFFFF" transform="translate(241.623681, 257.589483) scale(-1, -1) translate(-241.623681, -257.589483) "></path>
                <path d="M187.055561,43.9694308 L239.599304,15.3591808 L278.794726,32.8585847 C294.011865,39.652512 303.810535,54.7601786 303.808536,71.4250741 L303.788839,235.687505 L303.788839,235.687505 L187.055561,43.9694308 Z" id="Path-13-Copy" fill="#FFFFFF"></path>
                <path d="M368.582624,352.301295 L402.064345,380.285767 L402.064345,380.285767 L400.720695,149.058705 L355.070878,308.258538 C350.465408,324.319718 355.762499,341.586062 368.582624,352.301295 Z" id="Fill-19-Copy" fill="#F0F0F0" transform="translate(374.779995, 264.672236) rotate(-16.000000) translate(-374.779995, -264.672236) "></path>
                <polygon id="Fill-16-Copy-6" fill="#F0F0F0" transform="translate(60.637164, 133.575270) scale(-1, -1) rotate(-16.000000) translate(-60.637164, -133.575270) " points="30.9319542 18.855797 31.9205208 248.294743 90.3423746 235.318824"></polygon>
                <path d="M184.134793,352.388089 L217.616514,380.372561 L217.616514,380.372561 L216.272863,149.145499 L170.623046,308.345332 C166.017577,324.406512 171.314667,341.672856 184.134793,352.388089 Z" id="Fill-19-Copy" fill="#F0F0F0" transform="translate(190.332163, 264.759030) rotate(-16.000000) translate(-190.332163, -264.759030) "></path>
                <polygon id="Fill-16-Copy-2" fill="#F0F0F0" transform="translate(243.634508, 133.575270) scale(-1, -1) rotate(-16.000000) translate(-243.634508, -133.575270) " points="213.929298 18.855797 214.917865 248.294743 273.339718 235.318824"></polygon>
                <polygon id="Fill-16-Copy" fill="#FFFFFF" transform="translate(427.920042, 249.434572) rotate(-16.000000) translate(-427.920042, -249.434572) " points="398.579181 133.821042 399.922831 365.048103 457.260904 351.527601"></polygon>
                <path d="M108.18094,205.381068 L141.020781,232.921339 L141.020781,232.921339 L140.023556,3.51917969 L94.7250173,161.374997 C90.1224773,177.413874 95.3955808,194.658962 108.18094,205.381068 Z" id="Fill-19-Copy-6" fill="#FFFFFF" transform="translate(114.088664, 118.220259) scale(-1, -1) rotate(-16.000000) translate(-114.088664, -118.220259) "></path>
                <polygon id="Fill-16-Copy" fill="#FFFFFF" transform="translate(243.472210, 249.521367) rotate(-16.000000) translate(-243.472210, -249.521367) " points="214.131349 133.907836 215.475 365.134898 272.813072 351.614396"></polygon>
                <path d="M291.206514,205.425588 L324.024867,232.960754 L324.024867,232.960754 L323.036301,3.52180771 L277.75574,161.433891 C273.15822,177.467348 278.428683,194.704767 291.206514,205.425588 Z" id="Fill-19-Copy-2" fill="#FFFFFF" transform="translate(297.110484, 118.241281) scale(-1, -1) rotate(-16.000000) translate(-297.110484, -118.241281) "></path>
            </g>
        </g>
    </g>
</svg>